# File created by Blade
# Date/Time:  Wed Jan 28 15:39:58 2015
#---------------------------------------------------------
:version 1.10
:name HOM
:units
  mass 1.0
  length 1.000000
  angle deg
:documentation
     Acclaim Skeleton File
:root
   axis xyz
   order TX TY TZ RX RY RZ
   position 0.000000 0.000000 0.000000
   orientation 0 0 0
:bonedata
   begin
      id 1
      name Spine_dum
      direction 0.000000 1.000000 0.000000
      length 6.864287
      axis 0.0 0.0 0.0 xyz
   end
   begin
      id 2
      name LeftUpLeg_dum
      direction 1.000000 0.000000 0.000000
      length 4.117376
      axis 0.0 0.0 0.0 xyz
   end
   begin
      id 3
      name RightUpLeg_dum
      direction -1.000000 0.000000 0.000000
      length 4.117376
      axis 0.0 0.0 0.0 xyz
   end
   begin
      id 4
      name Spine
      direction 0.000000 1.000000 0.000000
      length 0.000000
      axis 0.0 0.0 0.0 xyz
      dof rx ry rz
   end
   begin
      id 5
      name Spine_dum1
      direction 0.000000 1.000000 0.000000
      length 15.393827
      axis 0.0 0.0 0.0 xyz
   end
   begin
      id 6
      name Spine_dum2
      direction 0.000000 1.000000 0.000000
      length 9.314826
      axis 0.0 0.0 0.0 xyz
   end
   begin
      id 7
      name Spine_dum3
      direction 0.000000 1.000000 0.000000
      length 9.314826
      axis 0.0 0.0 0.0 xyz
   end
   begin
      id 8
      name Head
      direction 0.000000 1.000000 0.000000
      length 4.527550
      axis 0.0 0.0 0.0 xyz
      dof rx ry rz
   end
   begin
      id 9
      name LeftShoulder
      direction 1.000000 0.000000 0.000000
      length 8.275398
      axis 0.0 0.0 -90.0 xyz
      dof rx ry rz
   end
   begin
      id 10
      name LeftArm
      direction 1.000000 0.000000 0.000000
      length 12.002200
      axis 0.0 0.0 -90.0 xyz
      dof rx ry rz
   end
   begin
      id 11
      name LeftForeArm
      direction 1.000000 0.000000 0.000000
      length 10.144633
      axis 0.0 0.0 -90.0 xyz
      dof ry rz rx
   end
   begin
      id 12
      name LeftHand
      direction 0.000000 0.000000 0.000000
      length 0.000000
      axis 0.0 0.0 -90.0 xyz
      dof rx ry rz
   end
   begin
      id 13
      name LeftHand_dum1
      direction 0.000000 0.000000 0.000000
      length 0.000000
      axis 0.0 0.0 -90.0 xyz
   end
   begin
      id 14
      name LeftHand_dum2
      direction 1.000000 0.000000 0.000000
      length 3.937000
      axis 0.0 0.0 -90.0 xyz
   end
   begin
      id 15
      name LeftHandThumb1
      direction 0.000000 0.000000 1.000000
      length 3.937000
      axis 0.0 0.0 -90.0 xyz
      dof rx rz ry
   end
   begin
      id 16
      name RightShoulder
      direction -1.000000 0.000000 0.000000
      length 8.275398
      axis 0.0 0.0 90.0 xyz
      dof rx ry rz
   end
   begin
      id 17
      name RightArm
      direction -1.000000 0.000000 0.000000
      length 12.002200
      axis 0.0 0.0 90.0 xyz
      dof rx ry rz
   end
   begin
      id 18
      name RightForeArm
      direction -1.000000 0.000000 0.000000
      length 10.144633
      axis 0.0 0.0 90.0 xyz
      dof ry rz rx
   end
   begin
      id 19
      name RightHand
      direction 0.000000 0.000000 0.000000
      length 0.000000
      axis 0.0 0.0 90.0 xyz
      dof rx ry rz
   end
   begin
      id 20
      name RightHand_dum1
      direction 0.000000 0.000000 0.000000
      length 0.000000
      axis 0.0 0.0 90.0 xyz
   end
   begin
      id 21
      name RightHand_dum2
      direction -1.000000 0.000000 0.000000
      length 3.937000
      axis 0.0 0.0 90.0 xyz
   end
   begin
      id 22
      name RightHandThumb1
      direction 0.000000 0.000000 1.000000
      length 3.937000
      axis 0.0 0.0 90.0 xyz
      dof rx rz ry
   end
   begin
      id 23
      name LeftUpLeg
      direction 0.000000 -1.000000 0.000000
      length 19.394322
      axis 0.0 0.0 0.0 xyz
      dof rx ry rz
   end
   begin
      id 24
      name LeftLeg
      direction 0.000000 -1.000000 0.000000
      length 17.609563
      axis 0.0 0.0 0.0 xyz
      dof rx ry rz
   end
   begin
      id 25
      name LeftFoot
      direction 0.000000 -0.258819 0.965926
      length 6.085393
      axis 15.0 0.0 0.0 xyz
      dof rx ry rz
   end
   begin
      id 26
      name LeftToeBase
      direction 0.000000 0.000000 1.000000
      length 2.952750
      axis 0.0 0.0 0.0 xyz
      dof rx ry rz
   end
   begin
      id 27
      name RightUpLeg
      direction 0.000000 -1.000000 0.000000
      length 19.394322
      axis 0.0 0.0 0.0 xyz
      dof rx ry rz
   end
   begin
      id 28
      name RightLeg
      direction 0.000000 -1.000000 0.000000
      length 17.609563
      axis 0.0 0.0 0.0 xyz
      dof rx ry rz
   end
   begin
      id 29
      name RightFoot
      direction 0.000000 -0.258819 0.965926
      length 6.085393
      axis 15.0 0.0 0.0 xyz
      dof rx ry rz
   end
   begin
      id 30
      name RightToeBase
      direction 0.000000 0.000000 1.000000
      length 2.952750
      axis 0.0 0.0 0.0 xyz
      dof rx ry rz
   end
:hierarchy
   begin
      root Spine_dum LeftUpLeg_dum RightUpLeg_dum
      Spine_dum Spine
      LeftUpLeg_dum LeftUpLeg
      RightUpLeg_dum RightUpLeg
      Spine Spine_dum1 Spine_dum2 Spine_dum3
      Spine_dum1 Head
      Spine_dum2 LeftShoulder
      Spine_dum3 RightShoulder
      LeftShoulder LeftArm
      LeftArm LeftForeArm
      LeftForeArm LeftHand
      LeftHand LeftHand_dum1 LeftHand_dum2
      LeftHand_dum1 LeftHandThumb1
      RightShoulder RightArm
      RightArm RightForeArm
      RightForeArm RightHand
      RightHand RightHand_dum1 RightHand_dum2
      RightHand_dum1 RightHandThumb1
      LeftUpLeg LeftLeg
      LeftLeg LeftFoot
      LeftFoot LeftToeBase
      RightUpLeg RightLeg
      RightLeg RightFoot
      RightFoot RightToeBase
   end

# File created by Blade
# Date/Time:  Wed Jan 28 15:40:07 2015
# Frame Rate: 120.000 fps
#------------------------------------------------------
:FULLY-SPECIFIED
:DEGREES
1269
root -8.503170 40.553464 -16.372932 22.626766 -44.085152 45.078035
Spine 13.479780 2.193273 24.663456
Head -40.526641 -35.164522 4.342462
LeftShoulder -20.164914 13.904173 -9.562428
LeftArm 5.625769 15.547761 -90.480374
LeftForeArm -16.016512 -0.000000 6.775334
LeftHand -1.906165 0.000000 -10.366554
LeftHandThumb1 -26.253704 0.000000 33.147579
RightShoulder -16.723334 7.521230 -45.317726
RightArm 0.159200 84.298197 25.981367
RightForeArm 5.002135 0.000000 101.126773
RightHand -12.936751 -0.000000 -41.899428
RightHandThumb1 -24.326973 -0.000000 -32.862282
LeftUpLeg -15.261892 2.366152 19.259557
LeftLeg 151.847065 -0.000000 -0.000000
LeftFoot 27.174999 -1.200063 -24.439923
LeftToeBase 4.441692 -0.000000 -0.000000
RightUpLeg -58.028558 -12.876917 -17.624049
RightLeg 18.481315 -0.000000 -0.000000
RightFoot -24.829544 -20.824944 13.475967
RightToeBase 8.266107 -0.000000 -0.000000
1270
root -8.491441 40.557883 -16.352882 22.599849 -44.168078 45.132523
Spine 13.501923 2.181435 24.727144
Head -40.606888 -35.210930 4.349273
LeftShoulder -20.083978 13.828994 -9.560575
LeftArm 5.509297 15.533226 -90.520265
LeftForeArm -16.005707 -0.000000 6.777581
LeftHand -1.867208 0.000000 -10.370299
LeftHandThumb1 -26.253704 0.000000 33.147579
RightShoulder -16.750778 7.366777 -45.330773
RightArm 0.562506 84.545012 26.326972
RightForeArm 5.132877 0.000000 101.041122
RightHand -12.967546 -0.000000 -42.011338
RightHandThumb1 -24.326973 -0.000000 -32.862282
LeftUpLeg -15.250456 2.357318 19.262502
LeftLeg 151.834430 -0.000000 -0.000000
LeftFoot 27.245027 -1.185161 -24.516746
LeftToeBase 4.286664 -0.000000 -0.000000
RightUpLeg -58.062544 -12.910318 -17.639657
RightLeg 18.465383 -0.000000 -0.000000
RightFoot -24.811191 -20.719649 13.501123
RightToeBase 8.225573 -0.000000 -0.000000
1271
root -8.479502 40.559861 -16.338003 22.590282 -44.260865 45.161953
Spine 13.554491 2.182353 24.766789
Head -40.610885 -35.110580 4.278592
LeftShoulder -20.054696 13.738279 -9.526793
LeftArm 5.414054 15.484265 -90.552250
LeftForeArm -15.839777 -0.000000 6.835417
LeftHand -2.017370 -0.000000 -10.368116
LeftHandThumb1 -26.253704 0.000000 33.147579
RightShoulder -16.782200 7.362152 -45.362834
RightArm -0.137106 84.661817 25.594691
RightForeArm 5.251982 -0.000000 100.963647
RightHand -13.014044 -0.000000 -42.030737
RightHandThumb1 -24.326973 -0.000000 -32.862282
LeftUpLeg -15.194218 2.327252 19.293373
LeftLeg 151.843173 -0.000000 -0.000000
LeftFoot 27.208255 -1.189211 -24.688194
LeftToeBase 4.427101 -0.000000 -0.000000
RightUpLeg -58.115179 -12.909339 -17.651675
RightLeg 18.472567 -0.000000 -0.000000
RightFoot -24.798191 -20.628732 13.546712
RightToeBase 8.245417 -0.000000 -0.000000
1272
root -8.469474 40.562534 -16.325031 22.566164 -44.323143 45.223907
Spine 13.576067 2.129255 24.787479
Head -40.648782 -35.023009 4.299045
LeftShoulder -20.081314 13.733355 -9.529010
LeftArm 5.406401 15.437517 -90.571670
LeftForeArm -15.892560 0.000000 6.850269
LeftHand -1.932912 -0.000000 -10.366219
LeftHandThumb1 -26.253704 0.000000 33.147579
RightShoulder -16.783240 7.483608 -45.459672
RightArm -1.740288 84.627929 24.023983
RightForeArm 5.364893 -0.000000 100.946830
RightHand -13.014045 -0.000000 -42.125500
RightHandThumb1 -24.326973 -0.000000 -32.862282
LeftUpLeg -15.181331 2.303699 19.321407
LeftLeg 151.861841 -0.000000 -0.000000
LeftFoot 27.127844 -1.203790 -24.596385
LeftToeBase 4.507504 -0.000000 -0.000000
RightUpLeg -58.173815 -12.947213 -17.666003
RightLeg 18.499045 -0.000000 -0.000000
RightFoot -24.785976 -20.566236 13.531958
RightToeBase 8.287730 -0.000000 -0.000000
1273
root -8.455570 40.563650 -16.313065 22.541145 -44.410200 45.314186
Spine 13.583992 2.125873 24.754429
Head -40.643403 -34.953679 4.327429
LeftShoulder -20.085339 13.784390 -9.498201
LeftArm 5.414399 15.318115 -90.600814
LeftForeArm -15.756775 -0.000000 6.943320
LeftHand -2.010960 -0.000000 -10.362476
LeftHandThumb1 -26.253704 0.000000 33.147579
RightShoulder -16.816927 7.592903 -45.524739
RightArm -3.024452 84.578703 22.760647
RightForeArm 5.519510 -0.000000 100.929218
RightHand -13.038351 -0.000000 -42.100921
RightHandThumb1 -24.326973 -0.000000 -32.862282
LeftUpLeg -15.196926 2.153932 19.363328
LeftLeg 151.833881 -0.000000 -0.000000
LeftFoot 27.468482 -1.466086 -24.613919
LeftToeBase 3.987029 -0.000000 -0.000000
RightUpLeg -58.272880 -12.967032 -17.716805
RightLeg 18.547978 -0.000000 -0.000000
RightFoot -24.811014 -20.492875 13.595538
RightToeBase 8.316969 -0.000000 -0.000000
1274
root -8.442362 40.564235 -16.299466 22.490162 -44.510019 45.430636
Spine 13.605785 2.113873 24.699443
Head -40.683765 -34.924380 4.399351
LeftShoulder -20.095385 13.845110 -9.496430
LeftArm 5.502512 15.360433 -90.555509
LeftForeArm -15.732098 -0.000000 6.952700
LeftHand -1.997925 -0.000000 -10.413146
LeftHandThumb1 -26.253704 0.000000 33.147579
RightShoulder -16.880676 7.527243 -45.521844
RightArm -2.733540 84.672748 23.037266
RightForeArm 5.648443 -0.000000 100.934818
RightHand -13.036385 -0.000000 -42.179852
RightHandThumb1 -24.326973 -0.000000 -32.862282
LeftUpLeg -15.196403 2.116932 19.358788
LeftLeg 151.844339 -0.000000 -0.000000
LeftFoot 27.467083 -1.491692 -24.555417
LeftToeBase 3.964339 -0.000000 -0.000000
RightUpLeg -58.378352 -12.980281 -17.788954
RightLeg 18.614031 -0.000000 -0.000000
RightFoot -24.793684 -20.475270 13.554193
RightToeBase 8.204348 -0.000000 -0.000000
1275
root -8.429193 40.565154 -16.284636 22.415488 -44.596437 45.583572
Spine 13.604388 2.105659 24.613300
Head -40.662604 -34.837578 4.421223
LeftShoulder -20.193573 14.108658 -9.526816
LeftArm 5.872328 15.554321 -90.456417
LeftForeArm -15.763444 -0.000000 6.901238
LeftHand -2.094693 0.000000 -10.465381
LeftHandThumb1 -26.253704 0.000000 33.147579
RightShoulder -16.926959 7.573389 -45.535343
RightArm -3.290343 84.654470 22.477879
RightForeArm 5.670397 -0.000000 100.954422
RightHand -13.077055 0.000000 -42.030559
RightHandThumb1 -24.326973 -0.000000 -32.862282
LeftUpLeg -15.214783 2.067993 19.320967
LeftLeg 151.851545 -0.000000 -0.000000
LeftFoot 27.433150 -1.432965 -24.520476
LeftToeBase 4.148905 -0.000000 -0.000000
RightUpLeg -58.476362 -13.005742 -17.897438
RightLeg 18.689107 -0.000000 -0.000000
RightFoot -24.823608 -20.442912 13.570893
RightToeBase 8.238447 -0.000000 -0.000000
1276
root -8.418544 40.563629 -16.270819 22.368451 -44.679886 45.680263
Spine 13.617697 2.078362 24.574590
Head -40.634639 -34.738319 4.450335
LeftShoulder -20.256768 14.235801 -9.535329
LeftArm 6.047342 15.611599 -90.406046
LeftForeArm -15.686384 -0.000000 6.898203
LeftHand -2.143895 -0.000000 -10.540445
LeftHandThumb1 -26.253704 0.000000 33.147579
RightShoulder -16.977308 7.530328 -45.512047
RightArm -2.727140 84.726631 22.997987
RightForeArm 5.744282 -0.000000 100.990003
RightHand -13.063549 -0.000000 -42.125424
RightHandThumb1 -24.326973 -0.000000 -32.862282
LeftUpLeg -15.196963 1.976529 19.347490
LeftLeg 151.846418 -0.000000 -0.000000
LeftFoot 27.474378 -1.491771 -24.477405
LeftToeBase 3.898951 -0.000000 -0.000000
RightUpLeg -58.558560 -13.003903 -17.972247
RightLeg 18.750625 -0.000000 -0.000000
RightFoot -24.918580 -20.454886 13.706917
RightToeBase 8.411717 -0.000000 -0.000000
1277
root -8.409396 40.561984 -16.255287 22.357319 -44.777854 45.713962
Spine 13.632732 2.044541 24.610582
Head -40.626065 -34.743099 4.469199
LeftShoulder -20.278346 14.246904 -9.556940
LeftArm 6.057773 15.641201 -90.386950
LeftForeArm -15.631958 -0.000000 6.897419
LeftHand -2.038239 0.000000 -10.488934
LeftHandThumb1 -26.253704 0.000000 33.147579
RightShoulder -16.961082 7.603050 -45.596459
RightArm -3.265069 84.710016 22.479776
RightForeArm 5.843170 -0.000000 101.057016
RightHand -13.053089 -0.000000 -42.032928
RightHandThumb1 -24.326973 -0.000000 -32.862282
LeftUpLeg -15.161422 1.923455 19.418394
LeftLeg 151.836143 -0.000000 -0.000000
LeftFoot 27.467725 -1.504867 -24.439919
LeftToeBase 3.988787 -0.000000 -0.000000
RightUpLeg -58.641802 -12.978779 -17.988403
RightLeg 18.818924 -0.000000 -0.000000
RightFoot -24.859620 -20.438753 13.581363
RightToeBase 8.190638 -0.000000 -0.000000
1278
root -8.398031 40.562215 -16.239911 22.295412 -44.889229 45.814155
Spine 13.681999 2.021193 24.574301
Head -40.568678 -34.617047 4.354645
LeftShoulder -20.260230 14.160156 -9.506468
LeftArm 5.984147 15.688546 -90.401130
LeftForeArm -15.639153 -0.000000 6.863897
LeftHand -1.927953 -0.000000 -10.478255
LeftHandThumb1 -26.253704 0.000000 33.147579
RightShoulder -16.991476 7.830277 -45.679546
RightArm -4.169220 84.534390 21.546086
RightForeArm 5.932717 -0.000000 101.108627
RightHand -12.992246 -0.000000 -42.173009
RightHandThumb1 -24.326973 -0.000000 -32.862282
LeftUpLeg -15.147029 1.885705 19.417435
LeftLeg 151.822007 -0.000000 -0.000000
LeftFoot 27.495131 -1.437552 -24.406791
LeftToeBase 3.972983 -0.000000 -0.000000
RightUpLeg -58.734007 -12.966690 -18.056105
RightLeg 18.896278 -0.000000 -0.000000
RightFoot -24.856748 -20.415652 13.557062
RightToeBase 8.243999 -0.000000 -0.000000
1279
root -8.387413 40.558485 -16.228564 22.292461 -44.983708 45.889549
Spine 13.651745 2.001777 24.540992
Head -40.520062 -34.542052 4.354182
LeftShoulder -20.213586 13.984417 -9.405383
LeftArm 5.768667 15.659924 -90.438237
LeftForeArm -15.747464 -0.000000 6.885071
LeftHand -1.987376 -0.000000 -10.441957
LeftHandThumb1 -26.253704 0.000000 33.147579
RightShoulder -17.017910 7.803943 -45.619313
RightArm -2.956039 84.605023 22.641900
RightForeArm 5.901508 -0.000000 101.145342
RightHand -13.031121 -0.000000 -42.138349
RightHandThumb1 -24.326973 -0.000000 -32.862282
LeftUpLeg -15.147042 1.747036 19.478733
LeftLeg 151.795119 -0.000000 -0.000000
LeftFoot 27.595468 -1.595066 -24.378408
LeftToeBase 3.887490 -0.000000 -0.000000
RightUpLeg -58.856084 -12.944424 -18.123323
RightLeg 18.974556 -0.000000 -0.000000
RightFoot -24.894081 -20.425273 13.577934
RightToeBase 8.260826 -0.000000 -0.000000
1280
root -8.376747 40.556393 -16.214972 22.256152 -45.084593 45.972774
Spine 13.662072 1.986908 24.514044
Head -40.454011 -34.461115 4.266880
LeftShoulder -20.184766 13.953719 -9.368971
LeftArm 5.758724 15.740021 -90.425124
LeftForeArm -15.876700 -0.000000 6.846284
LeftHand -1.896930 -0.000000 -10.411159
LeftHandThumb1 -26.253704 0.000000 33.147579
RightShoulder -17.050719 7.814607 -45.609030
RightArm -1.805917 84.675363 23.713186
RightForeArm 5.912500 0.000000 101.203305
RightHand -13.094828 0.000000 -42.071745
RightHandThumb1 -24.326973 -0.000000 -32.862282
LeftUpLeg -15.127683 1.700120 19.509405
LeftLeg 151.789320 -0.000000 -0.000000
LeftFoot 27.556086 -1.574505 -24.308581
LeftToeBase 3.772479 -0.000000 -0.000000
RightUpLeg -58.946549 -12.922085 -18.193777
RightLeg 19.039792 -0.000000 -0.000000
RightFoot -24.921581 -20.403715 13.597537
RightToeBase 8.245681 -0.000000 -0.000000
